<svg width="33" height="31" viewBox="0 0 33 31" fill="none" xmlns="http://www.w3.org/2000/svg">
<path d="M31.6643 5.45123L17.9569 19.1586C17.0056 20.1101 15.463 20.1101 14.5115 19.1586L13.4983 18.1453C12.5468 17.1939 11.0042 17.1939 10.0528 18.1453L2.03809 26.16M31.6643 5.45123L27.4287 5.45131M31.6643 5.45123L31.6644 9.68704" stroke="url(#paint0_linear_30_1047)" stroke-width="1.5" stroke-linecap="round" stroke-linejoin="round"/>
<mask id="mask0_30_1047" style="mask-type:alpha" maskUnits="userSpaceOnUse" x="0" y="0" width="22" height="18">
<path fill-rule="evenodd" clip-rule="evenodd" d="M6.67384 0.172485C2.98799 0.172485 0 3.16048 0 6.84633C0 9.95606 2.12692 12.5691 5.00544 13.3099V16.1974C5.00544 17.0566 6.04421 17.4868 6.65175 16.8793L10.0109 13.5202H15.0162C18.702 13.5202 21.69 10.5322 21.69 6.84633C21.69 3.16048 18.702 0.172485 15.0162 0.172485H6.67384Z" fill="url(#paint1_linear_30_1047)"/>
</mask>
<g mask="url(#mask0_30_1047)">
<path d="M5.00539 13.3099H6.62962V12.0508L5.41023 11.737L5.00539 13.3099ZM6.6517 16.8793L7.80019 18.0278L6.6517 16.8793ZM10.0108 13.5202V11.896H9.33801L8.86227 12.3717L10.0108 13.5202ZM1.62418 6.84634C1.62418 4.05755 3.885 1.79672 6.67379 1.79672V-1.45172C2.0909 -1.45172 -1.62427 2.26344 -1.62427 6.84634H1.62418ZM5.41023 11.737C3.2319 11.1764 1.62418 9.19707 1.62418 6.84634H-1.62427C-1.62427 10.7152 1.02184 13.9618 4.60056 14.8829L5.41023 11.737ZM6.62962 16.1974V13.3099H3.38117V16.1974H6.62962ZM5.50314 15.7308C5.91886 15.3151 6.62962 15.6096 6.62962 16.1974H3.38117C3.38117 18.5036 6.16939 19.6585 7.80019 18.0278L5.50314 15.7308ZM8.86227 12.3717L5.50314 15.7308L7.80019 18.0278L11.1593 14.6687L8.86227 12.3717ZM15.0161 11.896H10.0108V15.1444H15.0161V11.896ZM20.0657 6.84634C20.0657 9.63521 17.8049 11.896 15.0161 11.896V15.1444C19.599 15.1444 23.3142 11.4292 23.3142 6.84634H20.0657ZM15.0161 1.79672C17.8049 1.79672 20.0657 4.05755 20.0657 6.84634H23.3142C23.3142 2.26344 19.599 -1.45172 15.0161 -1.45172V1.79672ZM6.67379 1.79672H15.0161V-1.45172H6.67379V1.79672Z" fill="url(#paint2_linear_30_1047)"/>
</g>
<path fill-rule="evenodd" clip-rule="evenodd" d="M7.0064 7.01182C7.0064 7.63073 6.50468 8.13246 5.88577 8.13246C5.26686 8.13246 4.76514 7.63073 4.76514 7.01182C4.76514 6.39292 5.26686 5.89111 5.88577 5.89111C6.50468 5.89111 7.0064 6.39292 7.0064 7.01182ZM11.4891 7.01182C11.4891 7.63073 10.9874 8.13246 10.3685 8.13246C9.74947 8.13246 9.24775 7.63073 9.24775 7.01182C9.24775 6.39292 9.74947 5.89111 10.3685 5.89111C10.9874 5.89111 11.4891 6.39292 11.4891 7.01182ZM14.8511 8.13246C15.47 8.13246 15.9717 7.63073 15.9717 7.01182C15.9717 6.39292 15.47 5.89111 14.8511 5.89111C14.2322 5.89111 13.7304 6.39292 13.7304 7.01182C13.7304 7.63073 14.2322 8.13246 14.8511 8.13246Z" fill="url(#paint3_linear_30_1047)"/>
<mask id="mask1_30_1047" style="mask-type:alpha" maskUnits="userSpaceOnUse" x="18" y="20" width="14" height="11">
<path fill-rule="evenodd" clip-rule="evenodd" d="M22.53 20.4753C20.4029 20.4753 18.6785 22.1997 18.6785 24.3268C18.6785 26.454 20.4029 28.1784 22.53 28.1784H26.5843L28.4586 30.0527C28.7145 30.3086 29.1519 30.1274 29.1519 29.7657V27.8811C30.5411 27.2994 31.517 25.9271 31.517 24.3268C31.517 22.1997 29.7926 20.4753 27.6655 20.4753H22.53Z" fill="url(#paint4_linear_30_1047)"/>
</mask>
<g mask="url(#mask1_30_1047)">
<path d="M26.5842 28.1783L27.7327 27.0299L27.257 26.5541H26.5842V28.1783ZM28.4586 30.0527L29.6072 28.9042L28.4586 30.0527ZM29.1518 27.881L28.5245 26.3828L27.5276 26.8003V27.881H29.1518ZM20.3026 24.3267C20.3026 23.0966 21.2998 22.0995 22.5299 22.0995V18.851C19.5058 18.851 17.0542 21.3026 17.0542 24.3267H20.3026ZM22.5299 26.5541C21.2998 26.5541 20.3026 25.5569 20.3026 24.3267H17.0542C17.0542 27.351 19.5058 29.8026 22.5299 29.8026V26.5541ZM26.5842 26.5541H22.5299V29.8026H26.5842V26.5541ZM25.4358 29.3268L27.3101 31.2013L29.6072 28.9042L27.7327 27.0299L25.4358 29.3268ZM27.3101 31.2013C28.5891 32.4803 30.776 31.5743 30.776 29.7656H27.5276C27.5276 28.6803 28.8397 28.1368 29.6072 28.9042L27.3101 31.2013ZM30.776 29.7656V27.881H27.5276V29.7656H30.776ZM29.8927 24.3267C29.8927 25.2496 29.331 26.0452 28.5245 26.3828L29.7791 29.3792C31.7509 28.5536 33.1411 26.6045 33.1411 24.3267H29.8927ZM27.6654 22.0995C28.8955 22.0995 29.8927 23.0966 29.8927 24.3267H33.1411C33.1411 21.3026 30.6895 18.851 27.6654 18.851V22.0995ZM22.5299 22.0995H27.6654V18.851H22.5299V22.0995Z" fill="url(#paint5_linear_30_1047)"/>
</g>
<path fill-rule="evenodd" clip-rule="evenodd" d="M25.8416 24.4959C25.8416 24.8503 25.5542 25.1377 25.1996 25.1377C24.8451 25.1377 24.5577 24.8503 24.5577 24.4959C24.5577 24.1413 24.8451 23.8539 25.1996 23.8539C25.5542 23.8539 25.8416 24.1413 25.8416 24.4959ZM23.544 24.4959C23.544 24.8504 23.2567 25.1378 22.9021 25.1378C22.5477 25.1378 22.2603 24.8504 22.2603 24.4959C22.2603 24.1414 22.5477 23.854 22.9021 23.854C23.2567 23.854 23.544 24.1414 23.544 24.4959ZM27.4971 25.1377C27.8516 25.1377 28.139 24.8503 28.139 24.4959C28.139 24.1413 27.8516 23.8539 27.4971 23.8539C27.1425 23.8539 26.8551 24.1413 26.8551 24.4959C26.8551 24.8503 27.1425 25.1377 27.4971 25.1377Z" fill="url(#paint6_linear_30_1047)"/>
<path d="M9.76371 25.0213C10.2841 24.7209 10.9252 24.7209 11.4456 25.0213C11.9659 25.3218 12.2865 25.877 12.2865 26.4778C12.2865 27.0787 11.9659 27.6339 11.4456 27.9344C10.9252 28.2348 10.2841 28.2348 9.76371 27.9344C9.24339 27.6339 8.92285 27.0787 8.92285 26.4778C8.92285 25.877 9.24339 25.3218 9.76371 25.0213Z" fill="url(#paint7_linear_30_1047)"/>
<defs>
<linearGradient id="paint0_linear_30_1047" x1="6.03373" y1="6.60172" x2="20.4111" y2="29.6609" gradientUnits="userSpaceOnUse">
<stop stop-color="#D7D7D7"/>
<stop offset="1" stop-color="white"/>
</linearGradient>
<linearGradient id="paint1_linear_30_1047" x1="2.92529" y1="1.11644" x2="15.2615" y2="18.7711" gradientUnits="userSpaceOnUse">
<stop stop-color="#D7D7D7"/>
<stop offset="1" stop-color="white"/>
</linearGradient>
<linearGradient id="paint2_linear_30_1047" x1="1.73914" y1="-0.327115" x2="16.6086" y2="20.2097" gradientUnits="userSpaceOnUse">
<stop stop-color="#D7D7D7"/>
<stop offset="1" stop-color="white"/>
</linearGradient>
<linearGradient id="paint3_linear_30_1047" x1="6.27655" y1="6.01563" x2="6.8758" y2="9.37466" gradientUnits="userSpaceOnUse">
<stop stop-color="#D7D7D7"/>
<stop offset="1" stop-color="white"/>
</linearGradient>
<linearGradient id="paint4_linear_30_1047" x1="20.41" y1="21.014" x2="27.3588" y2="31.3278" gradientUnits="userSpaceOnUse">
<stop stop-color="#D7D7D7"/>
<stop offset="1" stop-color="white"/>
</linearGradient>
<linearGradient id="paint5_linear_30_1047" x1="19.2238" y1="19.5704" x2="28.7103" y2="32.783" gradientUnits="userSpaceOnUse">
<stop stop-color="#D7D7D7"/>
<stop offset="1" stop-color="white"/>
</linearGradient>
<linearGradient id="paint6_linear_30_1047" x1="23.0531" y1="23.9252" x2="23.4258" y2="25.8381" gradientUnits="userSpaceOnUse">
<stop stop-color="#D7D7D7"/>
<stop offset="1" stop-color="white"/>
</linearGradient>
<linearGradient id="paint7_linear_30_1047" x1="9.37649" y1="24.9829" x2="11.9603" y2="27.8796" gradientUnits="userSpaceOnUse">
<stop stop-color="#D7D7D7"/>
<stop offset="1" stop-color="white"/>
</linearGradient>
</defs>
</svg>
