<svg width="34" height="30" viewBox="0 0 34 30" fill="none" xmlns="http://www.w3.org/2000/svg">
<path d="M30.9599 7.18371C31.4563 6.91085 32.0677 6.91085 32.564 7.18371C33.0603 7.45665 33.366 7.96092 33.366 8.50672C33.366 9.05252 33.0603 9.55679 32.564 9.82973C32.0677 10.1026 31.4563 10.1026 30.9599 9.82973C30.4637 9.55679 30.158 9.05252 30.158 8.50672C30.158 7.96092 30.4637 7.45665 30.9599 7.18371Z" fill="url(#paint0_linear_30_1027)"/>
<path fill-rule="evenodd" clip-rule="evenodd" d="M18.7339 1.85097C17.7462 1.28777 16.5132 1.28777 15.5256 1.85097L10.3428 4.80634C9.40084 5.34343 8.82422 6.31233 8.82422 7.35795V13.5042C8.82422 14.5498 9.40081 15.5187 10.3428 16.0558L15.5256 19.0112C15.5256 19.0112 15.5256 19.0112 15.5256 19.0112C16.5132 19.5744 17.7462 19.5744 18.7339 19.0112C18.7339 19.0112 18.7339 19.0112 18.7339 19.0112L23.9166 16.0558C24.8586 15.5187 25.4352 14.5498 25.4352 13.5042V7.35795C25.4352 6.31233 24.8586 5.34345 23.9167 4.80635L18.7339 1.85097ZM14.755 0.625304C16.2171 -0.208435 18.0424 -0.208435 19.5044 0.625304L24.6872 3.58065C26.0817 4.37579 26.9352 5.81008 26.9352 7.35795V13.5042C26.9352 15.0521 26.0817 16.4864 24.6872 17.2815C24.6872 17.2815 24.6872 17.2815 24.6872 17.2815L19.5044 20.2369C18.0424 21.0706 16.2171 21.0706 14.755 20.2369L9.57229 17.2815C9.57228 17.2815 9.5723 17.2815 9.57229 17.2815C8.17777 16.4864 7.32422 15.0521 7.32422 13.5042V7.35795C7.32422 5.81009 8.17774 4.37581 9.57226 3.58067C9.57227 3.58066 9.57226 3.58067 9.57226 3.58067L14.755 0.625304Z" fill="url(#paint1_linear_30_1027)"/>
<path d="M0.962426 11.6979C1.55797 11.3705 2.29173 11.3705 2.88726 11.6979C3.48281 12.0254 3.84971 12.6306 3.84971 13.2855C3.84971 13.9404 3.48281 14.5456 2.88726 14.8731C2.29173 15.2006 1.55797 15.2006 0.962426 14.8731C0.366874 14.5456 0 13.9404 0 13.2855C0 12.6306 0.366874 12.0254 0.962426 11.6979Z" fill="url(#paint2_linear_30_1027)"/>
<path d="M14.8132 8.45256C14.8132 9.15556 15.3853 9.60702 17.1643 10.0436C18.9433 10.4802 20.8476 11.198 20.8476 13.2996C20.8476 14.8166 19.6328 15.6528 18.1047 15.9266L16.3556 15.9156C15.9553 15.913 15.5522 15.8835 15.1734 15.7604C14.2083 15.4466 13.4013 14.8503 13.0512 13.9396C12.8782 13.4897 13.2928 13.0776 13.7959 13.0776C14.2482 13.0776 14.5962 13.4281 14.8301 13.7967C15.1476 14.2973 15.7979 14.6316 16.9292 14.6316C18.6611 14.6316 19.0451 13.8176 19.0451 13.307C19.0451 12.6188 18.6533 11.9676 16.694 11.5236C14.5076 11.0278 13.0107 10.1768 13.0107 8.46739C13.0107 7.29686 13.8319 6.45938 14.9652 6.02416C15.4737 5.8289 16.0303 5.79858 16.5785 5.80374L18.1047 5.81813C19.3694 6.10958 20.1482 6.87307 20.4626 7.79183C20.6156 8.23871 20.2092 8.63757 19.7156 8.63757C19.2524 8.63757 18.9072 8.27051 18.699 7.87637C18.4391 7.38457 17.8942 7.0836 16.9292 7.0836C15.6047 7.0836 14.8132 7.646 14.8132 8.45256Z" fill="url(#paint3_linear_30_1027)"/>
<path fill-rule="evenodd" clip-rule="evenodd" d="M16.9202 4.76984C17.3344 4.76984 17.6702 5.08963 17.6702 5.48412V16.2387C17.6702 16.6332 17.3344 16.953 16.9202 16.953C16.506 16.953 16.1702 16.6332 16.1702 16.2387V5.48412C16.1702 5.08963 16.506 4.76984 16.9202 4.76984Z" fill="url(#paint4_linear_30_1027)"/>
<path fill-rule="evenodd" clip-rule="evenodd" d="M7.39975 17.9548C7.50278 18.3369 7.26108 18.7262 6.85989 18.8243C5.23871 19.2208 3.96806 19.7019 3.12108 20.2162C2.24063 20.7508 2.00146 21.2022 2.00146 21.496C2.00146 21.7608 2.19254 22.1565 2.90272 22.6362C3.59342 23.1028 4.64153 23.5522 6.00419 23.9415C8.71997 24.7175 12.5167 25.2078 16.7425 25.2078C20.9683 25.2078 24.765 24.7175 27.4808 23.9415C28.8435 23.5522 29.8916 23.1028 30.5823 22.6362C31.2924 22.1565 31.4835 21.7608 31.4835 21.496C31.4835 21.2022 31.2443 20.7508 30.3639 20.2162C29.5169 19.7019 28.2463 19.2208 26.6251 18.8243C26.2239 18.7262 25.9822 18.3369 26.0852 17.9548C26.1883 17.5727 26.597 17.3425 26.9982 17.4407C28.6958 17.8559 30.136 18.3836 31.1703 19.0116C32.1711 19.6193 32.9835 20.4439 32.9835 21.496C32.9835 22.4534 32.3076 23.2221 31.4501 23.8015C30.573 24.3939 29.3525 24.8982 27.9118 25.3099C25.0209 26.1358 21.0722 26.6363 16.7425 26.6363C12.4128 26.6363 8.46404 26.1358 5.57317 25.3099C4.13251 24.8982 2.91201 24.3939 2.03493 23.8015C1.17733 23.2221 0.501465 22.4534 0.501465 21.496C0.501465 20.4439 1.31386 19.6193 2.31467 19.0116C3.34894 18.3836 4.78922 17.8559 6.48676 17.4407C6.88796 17.3425 7.29671 17.5727 7.39975 17.9548Z" fill="url(#paint5_linear_30_1027)"/>
<path fill-rule="evenodd" clip-rule="evenodd" d="M7.39975 21.3184C7.50278 21.7005 7.26108 22.0898 6.85989 22.1879C5.23871 22.5844 3.96806 23.0655 3.12108 23.5798C2.24065 24.1144 2.00146 24.5658 2.00146 24.8597C2.00146 25.1245 2.19254 25.5201 2.90272 25.9999C3.59342 26.4664 4.64153 26.9159 6.00419 27.3052C8.71997 28.0811 12.5167 28.5714 16.7425 28.5714C20.9683 28.5714 24.765 28.0811 27.4808 27.3052C28.8435 26.9159 29.8916 26.4664 30.5823 25.9999C31.2924 25.5201 31.4835 25.1245 31.4835 24.8597C31.4835 24.5658 31.2443 24.1144 30.3639 23.5798C29.5169 23.0655 28.2463 22.5844 26.6251 22.1879C26.2239 22.0898 25.9822 21.7005 26.0852 21.3184C26.1883 20.9363 26.597 20.7061 26.9982 20.8042C28.6958 21.2194 30.136 21.7472 31.1703 22.3752C32.1711 22.9829 32.9835 23.8075 32.9835 24.8597C32.9835 25.8171 32.3076 26.5858 31.4501 27.1651C30.573 27.7576 29.3525 28.2619 27.9118 28.6735C25.0209 29.4995 21.0722 30 16.7425 30C12.4128 30 8.46404 29.4995 5.57317 28.6735C4.13251 28.2619 2.91201 27.7576 2.03493 27.1651C1.17733 26.5858 0.501465 25.8171 0.501465 24.8597C0.501465 23.8075 1.31385 22.9829 2.31466 22.3752C3.34894 21.7472 4.78922 21.2194 6.48676 20.8042C6.88796 20.7061 7.29671 20.9363 7.39975 21.3184Z" fill="url(#paint6_linear_30_1027)"/>
<defs>
<linearGradient id="paint0_linear_30_1027" x1="30.5906" y1="7.1488" x2="32.9219" y2="9.89299" gradientUnits="userSpaceOnUse">
<stop stop-color="#D7D7D7"/>
<stop offset="1" stop-color="white"/>
</linearGradient>
<linearGradient id="paint1_linear_30_1027" x1="9.96912" y1="1.15901" x2="26.0772" y2="18.1347" gradientUnits="userSpaceOnUse">
<stop stop-color="#D7D7D7"/>
<stop offset="1" stop-color="white"/>
</linearGradient>
<linearGradient id="paint2_linear_30_1027" x1="0.519204" y1="11.656" x2="3.3167" y2="14.9491" gradientUnits="userSpaceOnUse">
<stop stop-color="#D7D7D7"/>
<stop offset="1" stop-color="white"/>
</linearGradient>
<linearGradient id="paint3_linear_30_1027" x1="14.0677" y1="6.36563" x2="21.817" y2="13.091" gradientUnits="userSpaceOnUse">
<stop stop-color="#D7D7D7"/>
<stop offset="1" stop-color="white"/>
</linearGradient>
<linearGradient id="paint4_linear_30_1027" x1="16.3725" y1="5.44668" x2="18.9243" y2="5.79891" gradientUnits="userSpaceOnUse">
<stop stop-color="#D7D7D7"/>
<stop offset="1" stop-color="white"/>
</linearGradient>
<linearGradient id="paint5_linear_30_1027" x1="4.88226" y1="17.9302" x2="8.27347" y2="31.3266" gradientUnits="userSpaceOnUse">
<stop stop-color="#D7D7D7"/>
<stop offset="1" stop-color="white"/>
</linearGradient>
<linearGradient id="paint6_linear_30_1027" x1="4.88226" y1="21.2937" x2="8.27352" y2="34.6903" gradientUnits="userSpaceOnUse">
<stop stop-color="#D7D7D7"/>
<stop offset="1" stop-color="white"/>
</linearGradient>
</defs>
</svg>
