<svg width="36" height="31" viewBox="0 0 36 31" fill="none" xmlns="http://www.w3.org/2000/svg">
<path fill-rule="evenodd" clip-rule="evenodd" d="M10.8374 1.24788C10.6115 0.856493 10.111 0.722456 9.71964 0.948387C9.32825 1.17432 9.19413 1.67479 9.42014 2.06618L11.6826 5.98492C11.9086 6.37631 12.409 6.51035 12.8004 6.28442C13.1918 6.05848 13.3259 5.55801 13.0999 5.16662L10.8374 1.24788ZM18.5246 0.200571C18.088 0.0836036 17.6394 0.342659 17.5223 0.779163L16.4182 4.89994C16.3013 5.3365 16.5603 5.78517 16.9968 5.90219C17.4334 6.01912 17.8821 5.76005 17.999 5.32357L19.1032 1.2028C19.2201 0.766234 18.9611 0.317538 18.5246 0.200571ZM4.4602 8.32066C4.57722 7.8841 5.02589 7.62503 5.46245 7.74205L9.58323 8.84617C10.0197 8.96311 10.2788 9.41186 10.1618 9.84842C10.0448 10.2849 9.59616 10.544 9.15959 10.427L5.03882 9.32283C4.60234 9.2059 4.34327 8.75714 4.4602 8.32066Z" fill="url(#paint0_linear_30_1039)"/>
<path d="M25.7938 30.1725C25.5252 30.1027 23.3452 29.1359 23.1228 28.9624C23.0157 28.8985 22.9118 28.8312 22.8114 28.7607C21.7974 28.0482 20.5727 27.3466 19.4454 26.7859L14.9426 25.6863C13.7813 25.4027 13.1114 24.2425 13.4464 23.0949C13.7815 21.9474 14.9947 21.247 16.156 21.5306L19.0709 22.2424L13.5491 12.6785C12.9836 11.6989 13.3192 10.4464 14.2988 9.88092C15.2783 9.3154 16.5308 9.65098 17.0964 10.6305L19.6423 15.0403C19.7708 14.405 20.161 13.8259 20.7663 13.4764C21.6213 12.9828 22.6582 13.09 23.3885 13.6668C23.5846 13.2493 23.906 12.8854 24.3358 12.6372C25.1908 12.1436 26.2277 12.2507 26.9578 12.8274C27.1541 12.41 27.4754 12.0461 27.9052 11.798C29.0246 11.1517 30.456 11.5353 31.1024 12.6547L33.5225 16.8466C33.5604 16.9122 33.5948 16.9789 33.6257 17.0465C33.6288 17.0447 33.6319 17.0429 33.635 17.0411C34.6258 18.7574 35.1056 23.9608 35.2042 25.6863" stroke="url(#paint1_linear_30_1039)" stroke-width="1.5" stroke-linecap="round" stroke-linejoin="round"/>
<path d="M22.8058 10.9382L32.0953 1.42316M32.0953 1.42316L25.617 1.42324M32.0953 1.42316V8.05888M1 21.8806L8.4316 14.2685L13.5407 19.5017L15.4836 17.5116" stroke="url(#paint2_linear_30_1039)" stroke-width="1.5" stroke-linecap="round" stroke-linejoin="round"/>
<defs>
<linearGradient id="paint0_linear_30_1039" x1="8.36479" y1="1.83215" x2="27.5947" y2="30.0634" gradientUnits="userSpaceOnUse">
<stop stop-color="#D9D9D9"/>
<stop offset="1" stop-color="white"/>
</linearGradient>
<linearGradient id="paint1_linear_30_1039" x1="10.0012" y1="0.604694" x2="33.7318" y2="30.0634" gradientUnits="userSpaceOnUse">
<stop stop-color="#F3F3F3"/>
<stop offset="1" stop-color="white"/>
</linearGradient>
<linearGradient id="paint2_linear_30_1039" x1="9.18296" y1="1.42301" x2="32.0953" y2="30.8817" gradientUnits="userSpaceOnUse">
<stop stop-color="white"/>
<stop offset="1" stop-color="#DBDBDB"/>
</linearGradient>
</defs>
</svg>
