<svg width="1266" height="772" viewBox="0 0 1266 772" fill="none" xmlns="http://www.w3.org/2000/svg">
<path fill-rule="evenodd" clip-rule="evenodd" d="M921.245 1.19443L921.501 0L922.663 1.19443H921.245ZM921.245 1.19443H587.079C586.304 2.18979 585.626 3.18515 584.948 4.18051C584.27 5.17586 583.592 6.17122 582.817 7.16658C560.148 36.8281 537.575 66.4896 515.003 96.151C492.43 125.813 469.858 155.475 447.188 185.137C445.251 187.924 443.313 190.711 440.213 194.692H654.894C632.999 291.043 611.202 387.194 589.405 483.346C567.607 579.498 545.81 675.649 523.915 772H529.728H800.21C804.473 772 806.798 770.407 809.51 766.824L809.517 766.815C845.166 719.439 880.814 672.063 916.851 625.085C944.926 588.17 973.015 551.243 1001.11 514.305C1129.68 345.273 1258.42 176.021 1386.9 6.76844C1387.37 5.8041 1387.98 4.83975 1388.65 3.78701C1389.08 3.1012 1389.54 2.37786 1390 1.59257C1387.68 1.19443 1386.51 1.19443 1384.96 1.19443H1181.13C1178.03 1.19443 1173.77 3.58329 1171.83 6.37029C1055.59 158.84 939.743 311.309 823.892 463.779L823.848 463.837C823.267 464.633 822.589 465.33 821.911 466.027C821.232 466.724 820.554 467.42 819.973 468.217C821.523 453.884 824.623 439.95 827.723 426.016L827.723 426.013C831.851 407.428 835.979 388.853 840.105 370.284C862.32 270.311 884.492 170.533 906.388 70.4714L921.245 1.19443ZM12.4003 754.482C8.23458 759.657 4.06885 764.833 0 770.009V770.407V772H208.868C213.906 772 217.006 770.407 219.718 766.426C222.619 762.07 225.905 757.847 229.206 753.603C231.639 750.477 234.08 747.339 236.381 744.13C300.322 660.119 364.166 576.108 428.011 492.097C491.851 408.092 555.691 324.086 619.629 240.08C620.064 239.409 620.499 238.613 621.003 237.691C621.396 236.971 621.832 236.175 622.341 235.302C620.791 234.904 620.016 234.904 619.241 234.904H412.698C409.986 234.904 406.498 237.293 404.56 239.682C341.206 322.889 277.949 406.096 214.692 489.303C151.427 572.52 88.1623 655.737 24.8006 738.954C20.7318 744.13 16.566 749.306 12.4003 754.482Z" fill="url(#paint0_linear_30_221)"/>
<defs>
<linearGradient id="paint0_linear_30_221" x1="1255.5" y1="211.5" x2="111.622" y2="771.25" gradientUnits="userSpaceOnUse">
<stop stop-color="#F4F4F4" stop-opacity="0.5"/>
<stop offset="1" stop-color="#F8F8F8"/>
</linearGradient>
</defs>
</svg>
