<svg width="156" height="31" viewBox="0 0 156 31" fill="none" xmlns="http://www.w3.org/2000/svg">
<path d="M35.7993 0C35.6036 0.912842 35.4079 1.82568 35.2122 2.73853C34.2036 7.34915 33.1799 11.9443 32.1562 16.5549C32.0357 17.0964 31.9153 17.638 31.8551 18.1949C31.9002 18.1331 31.9605 18.0866 32.0056 18.0248C36.5069 12.099 41.0081 6.17329 45.5244 0.24755C45.5997 0.139247 45.7653 0.0464157 45.8857 0.0464157C48.5203 0.0464157 51.1548 0.0464157 53.8043 0.0464157C53.8646 0.0464157 53.9097 0.0464157 54 0.0618876C53.9549 0.139247 53.9097 0.201135 53.8796 0.263022C47.7976 8.27746 41.7006 16.2919 35.6187 24.2909C34.2186 26.1166 32.8336 27.9577 31.4486 29.7989C31.3432 29.9381 31.2529 30 31.0873 30C27.5796 30 24.072 30 20.5794 30C20.5191 30 20.4439 30 20.3535 30C22.0547 22.5116 23.7408 15.0542 25.4419 7.56576H17.1018C17.2222 7.41104 17.2975 7.30273 17.3728 7.19443C19.1341 4.88912 20.8805 2.58381 22.6418 0.278494C22.702 0.201135 22.7472 0.123775 22.8074 0.0464157C27.1581 0.0464157 31.4938 0.0464157 35.8445 0.0464157L35.7993 0Z" fill="white"/>
<path d="M0 29.9226C0.316142 29.5204 0.647337 29.1181 0.963479 28.7158C5.88625 22.2486 10.794 15.7813 15.7168 9.31408C15.792 9.22125 15.9275 9.12842 16.0329 9.12842C18.7126 9.12842 21.3772 9.12842 24.0569 9.12842C24.087 9.12842 24.1171 9.12842 24.1773 9.14389C24.1321 9.22125 24.102 9.28314 24.0719 9.32955C19.104 15.8587 14.1511 22.3878 9.18316 28.917C8.9724 29.2109 8.73153 29.4894 8.53582 29.7834C8.43044 29.9381 8.31001 30 8.1143 30C5.40452 30 2.70978 30 0 30C0 29.9845 0 29.9691 0 29.9381L0 29.9226Z" fill="white"/>
<path d="M57.7435 5.85786C58.2355 13.875 57.9788 21.9135 58.0644 29.9734H53.8723V0.0427581C53.8723 0.0427581 54.022 0.021379 54.0862 0.021379C55.562 0.021379 57.0591 0.021379 58.5349 0.021379C58.6632 0.021379 58.8557 0.128274 58.9199 0.235169C62.342 6.37095 65.764 12.5067 69.1219 18.6639C69.9347 20.1818 70.5549 21.7852 71.2821 23.3673C71.3463 23.4956 71.3891 23.6238 71.5174 23.7521C70.8758 15.8632 71.1966 7.97438 71.0896 0H75.2603V29.9948C75.2603 29.9948 75.0678 30.0162 74.9823 30.0162C73.6562 30.0162 72.3301 30.0162 71.0041 30.0162C70.8116 30.0162 70.6833 29.9948 70.5763 29.8024C67.3467 23.9659 64.0958 18.1508 60.909 12.2929C59.8396 10.3261 58.984 8.23093 58.043 6.17854C57.9788 6.05027 57.936 5.94337 57.8719 5.83648C57.8291 5.83648 57.8077 5.83648 57.7649 5.85786H57.7435Z" fill="white"/>
<path d="M108.305 0C109.995 0 111.641 0 113.267 0C113.374 0 113.524 0.149653 113.588 0.256548C115.384 3.86961 117.181 7.48266 118.977 11.1171C119.042 11.2454 119.106 11.395 119.191 11.5874C119.277 11.4378 119.32 11.3309 119.384 11.2454C121.18 7.56818 122.977 3.89098 124.774 0.235169C124.816 0.128274 124.988 0.021379 125.116 0.021379C126.699 0.021379 128.26 0.021379 129.843 0.021379C129.885 0.021379 129.907 0.021379 129.971 0.0427581C129.907 0.171032 129.843 0.299307 129.778 0.427581C127.169 5.06683 124.581 9.6847 121.972 14.324C121.843 14.5591 121.822 14.7302 121.972 14.9867C124.667 19.8397 127.362 24.7142 130.035 29.5672C130.099 29.6955 130.185 29.8451 130.27 30.0375C129.971 30.0375 129.714 30.0375 129.458 30.0375C128.132 30.0375 126.806 30.0375 125.479 30.0375C125.223 30.0375 125.073 29.952 124.945 29.7169C122.977 25.8473 120.988 21.999 119.02 18.1508C118.978 18.0867 118.935 18.0225 118.871 17.9156C118.806 18.0653 118.742 18.1936 118.699 18.3005C116.86 22.1487 115.042 25.9755 113.181 29.8238C113.139 29.9307 112.989 30.0375 112.882 30.0375C111.278 30.0375 109.695 30.0375 108.027 30.0375C108.112 29.8879 108.177 29.7596 108.241 29.6527C110.871 24.7997 113.524 19.9466 116.154 15.115C116.283 14.8584 116.283 14.6874 116.154 14.4522C113.631 9.7916 111.107 5.13097 108.583 0.470339C108.519 0.342065 108.455 0.21379 108.348 0.0427581L108.305 0Z" fill="white"/>
<path d="M100.477 12.464V16.2267H90.018V26.1893H101.781V29.9948H85.4624V0H101.097V3.78409H90.018V12.464H100.477Z" fill="white"/>
<path d="M143.338 29.9948V3.89099H135.318V0H156V3.86961H147.915V29.9734H143.338V29.9948Z" fill="white"/>
</svg>
